<?xml version="1.0" encoding="UTF-8"?>
<svg xmlns="http://www.w3.org/2000/svg" viewBox="0 0 512 512" role="img" aria-label="Brenn">
  <title>Brenn</title>
  <desc>Brenn — dark background icon.</desc>
  <rect width="512" height="512" fill="#0a0908"/>
  <path d="M106 52Q108 60 110.0 99.5Q112 139 112 199V387Q112 452 110.0 492.0Q108 532 106 538L45 548L47 587H285Q383 587 433.5 550.5Q484 514 484 446Q484 391 441.0 353.0Q398 315 329 310L317 317Q412 314 463.0 275.5Q514 237 514 169Q514 91 447.0 45.5Q380 0 265 0H47L45 38ZM196 177Q196 133 197.0 97.5Q198 62 199 53Q212 51 234.0 48.5Q256 46 269 46Q346 46 384.5 74.0Q423 102 423 159Q423 218 382.5 247.5Q342 277 261 277Q223 277 208.5 277.0Q194 277 183 275V327Q202 326 219.0 325.5Q236 325 256 325Q322 325 357.5 354.0Q393 383 393 436Q393 488 360.0 515.5Q327 543 265 543H198Q197 536 196.5 498.0Q196 460 196 413Z" fill="#f5f0e6" transform="translate(129.44 360.00) scale(0.31250 -0.31250)"/>
  <path d="M117 -10Q90 -10 72.0 7.5Q54 25 54 51Q54 69 62.0 82.5Q70 96 84.5 104.0Q99 112 117 112Q144 112 162.0 94.5Q180 77 180 51Q180 25 162.0 7.5Q144 -10 117 -10Z" fill="#E8551C" transform="translate(309.44 360.00) scale(0.31250 -0.31250)"/>
</svg>
