<?xml version="1.0" encoding="UTF-8"?>
<svg xmlns="http://www.w3.org/2000/svg" viewBox="0 0 400 80" role="img" aria-label="Brenn">
  <title>Brenn</title>
  <desc>Brenn — wordmark white version.</desc>
  <line x1="140" y1="22" x2="260" y2="22" stroke="#ffffff" stroke-width="0.7" stroke-opacity="0.85"/>
  <path d="M106 52Q108 60 110.0 99.5Q112 139 112 199V387Q112 452 110.0 492.0Q108 532 106 538L45 548L47 587H285Q383 587 433.5 550.5Q484 514 484 446Q484 391 441.0 353.0Q398 315 329 310L317 317Q412 314 463.0 275.5Q514 237 514 169Q514 91 447.0 45.5Q380 0 265 0H47L45 38ZM196 177Q196 133 197.0 97.5Q198 62 199 53Q212 51 234.0 48.5Q256 46 269 46Q346 46 384.5 74.0Q423 102 423 159Q423 218 382.5 247.5Q342 277 261 277Q223 277 208.5 277.0Q194 277 183 275V327Q202 326 219.0 325.5Q236 325 256 325Q322 325 357.5 354.0Q393 383 393 436Q393 488 360.0 515.5Q327 543 265 543H198Q197 536 196.5 498.0Q196 460 196 413Z" fill="#ffffff" transform="translate(126.80 55.00) scale(0.03320 -0.03320)"/>
  <path d="M52 0 50 38 111 53Q111 60 111.5 74.5Q112 89 112.0 109.0Q112 129 112.5 152.0Q113 175 113 199V387Q113 433 112.5 464.5Q112 496 111.5 513.5Q111 531 109 535L47 549L50 587H269Q363 587 412.5 550.5Q462 514 462 443Q462 394 435.0 355.5Q408 317 360.0 295.0Q312 273 249 273H185V318H242Q304 318 338.5 349.0Q373 380 373 435Q373 488 343.0 515.5Q313 543 257 543H199Q198 540 197.5 534.5Q197 529 197.0 515.0Q197 501 197.0 474.0Q197 447 197 402V199Q197 156 197.5 127.0Q198 98 199.5 80.5Q201 63 202 53L261 38L258 0ZM526 -10Q482 -10 448.0 6.5Q414 23 382.0 61.5Q350 100 313 166L245 290L320 307L428 148Q456 107 478.5 82.5Q501 58 523.0 46.0Q545 34 571 29L570 -6Q560 -8 548.5 -9.0Q537 -10 526 -10Z" fill="#ffffff" transform="translate(154.39 55.00) scale(0.03320 -0.03320)"/>
  <path d="M486 -5Q457 -2 434.5 -1.0Q412 0 392 0H49L46 38L108 52Q110 57 110.5 75.0Q111 93 111.5 124.0Q112 155 112 199V387Q112 432 111.5 463.5Q111 495 110.5 513.0Q110 531 108 535L46 549L49 587H370Q384 587 399.5 587.5Q415 588 433.0 589.0Q451 590 470 591L490 459L445 452L412 536Q404 538 394.0 538.5Q384 539 373 539H260Q241 539 226.5 538.5Q212 538 198 536Q198 532 197.5 513.5Q197 495 196.5 471.0Q196 447 196 423V153Q196 133 196.5 112.5Q197 92 197.5 76.0Q198 60 198 54Q212 53 227.5 52.0Q243 51 262 51H359Q381 51 395.0 51.5Q409 52 417.0 53.0Q425 54 430 55L482 150L527 141ZM375 205 363 273Q358 275 346.0 276.0Q334 277 317 277H241Q228 277 213.0 276.0Q198 275 181 274V329Q198 328 213.0 327.5Q228 327 241 327H317Q334 327 346.0 328.0Q358 329 363 330L375 399H418V205Z" fill="#ffffff" transform="translate(182.22 55.00) scale(0.03320 -0.03320)"/>
  <path d="M505 143V367Q505 426 504.0 461.5Q503 497 502.0 514.5Q501 532 500 535L432 549L435 587H625L628 549L566 535Q566 532 564.5 514.5Q563 497 562.0 461.5Q561 426 561 367V129Q561 98 561.0 64.5Q561 31 562 -4H517L149 491H171V223Q171 163 172.0 126.5Q173 90 174.5 73.0Q176 56 177 52L245 38L242 0H50L47 38L108 52Q109 56 110.5 73.0Q112 90 113.0 126.5Q114 163 114 223V394Q114 439 113.0 468.0Q112 497 111.0 513.0Q110 529 108 535L47 549L50 587H187L523 143Z" fill="#ffffff" transform="translate(209.68 55.00) scale(0.03320 -0.03320)"/>
  <path d="M505 143V367Q505 426 504.0 461.5Q503 497 502.0 514.5Q501 532 500 535L432 549L435 587H625L628 549L566 535Q566 532 564.5 514.5Q563 497 562.0 461.5Q561 426 561 367V129Q561 98 561.0 64.5Q561 31 562 -4H517L149 491H171V223Q171 163 172.0 126.5Q173 90 174.5 73.0Q176 56 177 52L245 38L242 0H50L47 38L108 52Q109 56 110.5 73.0Q112 90 113.0 126.5Q114 163 114 223V394Q114 439 113.0 468.0Q112 497 111.0 513.0Q110 529 108 535L47 549L50 587H187L523 143Z" fill="#ffffff" transform="translate(241.06 55.00) scale(0.03320 -0.03320)"/>
  <path d="M117 -10Q90 -10 72.0 7.5Q54 25 54 51Q54 69 62.0 82.5Q70 96 84.5 104.0Q99 112 117 112Q144 112 162.0 94.5Q180 77 180 51Q180 25 162.0 7.5Q144 -10 117 -10Z" fill="#ffffff" transform="translate(265.43 55.00) scale(0.03320 -0.03320)"/>
  <line x1="140" y1="73" x2="260" y2="73" stroke="#ffffff" stroke-width="0.7" stroke-opacity="0.85"/>
</svg>
