<?xml version="1.0" encoding="UTF-8"?>
<svg xmlns="http://www.w3.org/2000/svg" viewBox="0 0 400 110" role="img" aria-label="Brenn Coffee Roasters">
  <title>Brenn Coffee Roasters</title>
  <desc>Brenn Coffee — color (use on light) logo with hairline rules and ember accent.</desc>
  <line x1="140" y1="32" x2="260" y2="32" stroke="#E8551C" stroke-width="0.7" stroke-opacity="0.85"/>
  <path d="M106 52Q108 60 110.0 99.5Q112 139 112 199V387Q112 452 110.0 492.0Q108 532 106 538L45 548L47 587H285Q383 587 433.5 550.5Q484 514 484 446Q484 391 441.0 353.0Q398 315 329 310L317 317Q412 314 463.0 275.5Q514 237 514 169Q514 91 447.0 45.5Q380 0 265 0H47L45 38ZM196 177Q196 133 197.0 97.5Q198 62 199 53Q212 51 234.0 48.5Q256 46 269 46Q346 46 384.5 74.0Q423 102 423 159Q423 218 382.5 247.5Q342 277 261 277Q223 277 208.5 277.0Q194 277 183 275V327Q202 326 219.0 325.5Q236 325 256 325Q322 325 357.5 354.0Q393 383 393 436Q393 488 360.0 515.5Q327 543 265 543H198Q197 536 196.5 498.0Q196 460 196 413Z" fill="#0a0908" transform="translate(126.80 65.00) scale(0.03320 -0.03320)"/>
  <path d="M52 0 50 38 111 53Q111 60 111.5 74.5Q112 89 112.0 109.0Q112 129 112.5 152.0Q113 175 113 199V387Q113 433 112.5 464.5Q112 496 111.5 513.5Q111 531 109 535L47 549L50 587H269Q363 587 412.5 550.5Q462 514 462 443Q462 394 435.0 355.5Q408 317 360.0 295.0Q312 273 249 273H185V318H242Q304 318 338.5 349.0Q373 380 373 435Q373 488 343.0 515.5Q313 543 257 543H199Q198 540 197.5 534.5Q197 529 197.0 515.0Q197 501 197.0 474.0Q197 447 197 402V199Q197 156 197.5 127.0Q198 98 199.5 80.5Q201 63 202 53L261 38L258 0ZM526 -10Q482 -10 448.0 6.5Q414 23 382.0 61.5Q350 100 313 166L245 290L320 307L428 148Q456 107 478.5 82.5Q501 58 523.0 46.0Q545 34 571 29L570 -6Q560 -8 548.5 -9.0Q537 -10 526 -10Z" fill="#0a0908" transform="translate(154.39 65.00) scale(0.03320 -0.03320)"/>
  <path d="M486 -5Q457 -2 434.5 -1.0Q412 0 392 0H49L46 38L108 52Q110 57 110.5 75.0Q111 93 111.5 124.0Q112 155 112 199V387Q112 432 111.5 463.5Q111 495 110.5 513.0Q110 531 108 535L46 549L49 587H370Q384 587 399.5 587.5Q415 588 433.0 589.0Q451 590 470 591L490 459L445 452L412 536Q404 538 394.0 538.5Q384 539 373 539H260Q241 539 226.5 538.5Q212 538 198 536Q198 532 197.5 513.5Q197 495 196.5 471.0Q196 447 196 423V153Q196 133 196.5 112.5Q197 92 197.5 76.0Q198 60 198 54Q212 53 227.5 52.0Q243 51 262 51H359Q381 51 395.0 51.5Q409 52 417.0 53.0Q425 54 430 55L482 150L527 141ZM375 205 363 273Q358 275 346.0 276.0Q334 277 317 277H241Q228 277 213.0 276.0Q198 275 181 274V329Q198 328 213.0 327.5Q228 327 241 327H317Q334 327 346.0 328.0Q358 329 363 330L375 399H418V205Z" fill="#0a0908" transform="translate(182.22 65.00) scale(0.03320 -0.03320)"/>
  <path d="M505 143V367Q505 426 504.0 461.5Q503 497 502.0 514.5Q501 532 500 535L432 549L435 587H625L628 549L566 535Q566 532 564.5 514.5Q563 497 562.0 461.5Q561 426 561 367V129Q561 98 561.0 64.5Q561 31 562 -4H517L149 491H171V223Q171 163 172.0 126.5Q173 90 174.5 73.0Q176 56 177 52L245 38L242 0H50L47 38L108 52Q109 56 110.5 73.0Q112 90 113.0 126.5Q114 163 114 223V394Q114 439 113.0 468.0Q112 497 111.0 513.0Q110 529 108 535L47 549L50 587H187L523 143Z" fill="#0a0908" transform="translate(209.68 65.00) scale(0.03320 -0.03320)"/>
  <path d="M505 143V367Q505 426 504.0 461.5Q503 497 502.0 514.5Q501 532 500 535L432 549L435 587H625L628 549L566 535Q566 532 564.5 514.5Q563 497 562.0 461.5Q561 426 561 367V129Q561 98 561.0 64.5Q561 31 562 -4H517L149 491H171V223Q171 163 172.0 126.5Q173 90 174.5 73.0Q176 56 177 52L245 38L242 0H50L47 38L108 52Q109 56 110.5 73.0Q112 90 113.0 126.5Q114 163 114 223V394Q114 439 113.0 468.0Q112 497 111.0 513.0Q110 529 108 535L47 549L50 587H187L523 143Z" fill="#0a0908" transform="translate(241.06 65.00) scale(0.03320 -0.03320)"/>
  <path d="M117 -10Q90 -10 72.0 7.5Q54 25 54 51Q54 69 62.0 82.5Q70 96 84.5 104.0Q99 112 117 112Q144 112 162.0 94.5Q180 77 180 51Q180 25 162.0 7.5Q144 -10 117 -10Z" fill="#E8551C" transform="translate(265.43 65.00) scale(0.03320 -0.03320)"/>
  <line x1="140" y1="83" x2="260" y2="83" stroke="#E8551C" stroke-width="0.7" stroke-opacity="0.85"/>
  <path d="M640 169Q619 113 580.0 72.5Q541 32 488.5 11.0Q436 -10 374 -10Q280 -10 211.5 31.5Q143 73 105.5 149.0Q68 225 68 330Q68 435 105.5 511.0Q143 587 211.5 628.5Q280 670 372 670Q436 670 486.0 652.5Q536 635 571.5 600.5Q607 566 628 516L549 479Q527 536 485.5 565.5Q444 595 378 595Q311 595 260.0 563.5Q209 532 180.5 473.0Q152 414 152 330Q152 247 179.0 187.5Q206 128 256.0 96.5Q306 65 374 65Q440 65 489.0 98.5Q538 132 560 199Z" fill="#5a5043" transform="translate(129.25 99.00) scale(0.00750 -0.00750)"/>
  <path d="M374 670Q468 670 536.5 628.5Q605 587 642.5 511.0Q680 435 680 330Q680 225 642.5 149.0Q605 73 536.5 31.5Q468 -10 374 -10Q280 -10 211.5 31.5Q143 73 105.5 149.0Q68 225 68 330Q68 435 105.5 511.0Q143 587 211.5 628.5Q280 670 374 670ZM374 595Q306 595 256.0 563.5Q206 532 179.0 472.5Q152 413 152 330Q152 247 179.0 187.5Q206 128 256.0 96.5Q306 65 374 65Q443 65 492.5 96.5Q542 128 569.0 187.5Q596 247 596 330Q596 413 569.0 472.5Q542 532 492.5 563.5Q443 595 374 595Z" fill="#5a5043" transform="translate(139.40 99.00) scale(0.00750 -0.00750)"/>
  <path d="M570 585H188V372H486V297H188V0H108V660H570Z" fill="#5a5043" transform="translate(150.01 99.00) scale(0.00750 -0.00750)"/>
  <path d="M570 585H188V372H486V297H188V0H108V660H570Z" fill="#5a5043" transform="translate(159.58 99.00) scale(0.00750 -0.00750)"/>
  <path d="M108 0V660H571V585H188V372H486V297H188V75H586V0Z" fill="#5a5043" transform="translate(169.16 99.00) scale(0.00750 -0.00750)"/>
  <path d="M108 0V660H571V585H188V372H486V297H188V75H586V0Z" fill="#5a5043" transform="translate(178.94 99.00) scale(0.00750 -0.00750)"/>
  <path d="M358 660Q459 660 520.0 608.0Q581 556 581 467Q581 378 519.5 328.5Q458 279 357 279L350 274H188V0H108V660ZM357 349Q428 349 462.5 378.5Q497 408 497 467Q497 526 462.5 555.5Q428 585 357 585H188V349ZM403 333 621 0H526L336 289Z" fill="#5a5043" transform="translate(196.28 99.00) scale(0.00750 -0.00750)"/>
  <path d="M374 670Q468 670 536.5 628.5Q605 587 642.5 511.0Q680 435 680 330Q680 225 642.5 149.0Q605 73 536.5 31.5Q468 -10 374 -10Q280 -10 211.5 31.5Q143 73 105.5 149.0Q68 225 68 330Q68 435 105.5 511.0Q143 587 211.5 628.5Q280 670 374 670ZM374 595Q306 595 256.0 563.5Q206 532 179.0 472.5Q152 413 152 330Q152 247 179.0 187.5Q206 128 256.0 96.5Q306 65 374 65Q443 65 492.5 96.5Q542 128 569.0 187.5Q596 247 596 330Q596 413 569.0 472.5Q542 532 492.5 563.5Q443 595 374 595Z" fill="#5a5043" transform="translate(206.27 99.00) scale(0.00750 -0.00750)"/>
  <path d="M634 0H549L479 183H180L110 0H26L283 660H378ZM209 258H450L329 583Z" fill="#5a5043" transform="translate(216.88 99.00) scale(0.00750 -0.00750)"/>
  <path d="M320 670Q407 670 470.0 634.5Q533 599 575 530L508 478Q471 542 424.5 568.5Q378 595 312 595Q259 595 224.5 580.0Q190 565 174.0 540.5Q158 516 158 485Q158 450 180.0 423.5Q202 397 268 382L411 350Q506 329 543.5 286.5Q581 244 581 181Q581 125 549.5 81.5Q518 38 461.0 14.0Q404 -10 327 -10Q255 -10 200.5 9.5Q146 29 107.0 62.0Q68 95 43 136L113 193Q132 155 162.0 126.0Q192 97 234.5 81.0Q277 65 332 65Q383 65 420.5 77.5Q458 90 478.0 114.5Q498 139 498 174Q498 206 477.0 231.5Q456 257 398 270L243 305Q182 319 144.5 343.5Q107 368 90.5 401.5Q74 435 74 474Q74 527 103.5 571.5Q133 616 188.5 643.0Q244 670 320 670Z" fill="#5a5043" transform="translate(226.83 99.00) scale(0.00750 -0.00750)"/>
  <path d="M572 660V585H342V0H262V585H32V660Z" fill="#5a5043" transform="translate(236.64 99.00) scale(0.00750 -0.00750)"/>
  <path d="M108 0V660H571V585H188V372H486V297H188V75H586V0Z" fill="#5a5043" transform="translate(246.17 99.00) scale(0.00750 -0.00750)"/>
  <path d="M358 660Q459 660 520.0 608.0Q581 556 581 467Q581 378 519.5 328.5Q458 279 357 279L350 274H188V0H108V660ZM357 349Q428 349 462.5 378.5Q497 408 497 467Q497 526 462.5 555.5Q428 585 357 585H188V349ZM403 333 621 0H526L336 289Z" fill="#5a5043" transform="translate(255.95 99.00) scale(0.00750 -0.00750)"/>
  <path d="M320 670Q407 670 470.0 634.5Q533 599 575 530L508 478Q471 542 424.5 568.5Q378 595 312 595Q259 595 224.5 580.0Q190 565 174.0 540.5Q158 516 158 485Q158 450 180.0 423.5Q202 397 268 382L411 350Q506 329 543.5 286.5Q581 244 581 181Q581 125 549.5 81.5Q518 38 461.0 14.0Q404 -10 327 -10Q255 -10 200.5 9.5Q146 29 107.0 62.0Q68 95 43 136L113 193Q132 155 162.0 126.0Q192 97 234.5 81.0Q277 65 332 65Q383 65 420.5 77.5Q458 90 478.0 114.5Q498 139 498 174Q498 206 477.0 231.5Q456 257 398 270L243 305Q182 319 144.5 343.5Q107 368 90.5 401.5Q74 435 74 474Q74 527 103.5 571.5Q133 616 188.5 643.0Q244 670 320 670Z" fill="#5a5043" transform="translate(265.94 99.00) scale(0.00750 -0.00750)"/>
</svg>
